<svg xmlns="http://www.w3.org/2000/svg" width="256" height="256" fill="none" viewBox="0 0 256 256"><path fill="url(#paint0_linear_2115_2000)" d="M128 248L231.9 187.92V67.856L128 8L24.1041 67.856L128 127.936V248Z"/><path fill="url(#paint1_linear_2115_2000)" d="M231.9 67.856L128 8L24.1041 67.856L128 127.936L231.9 67.856Z"/><path fill="url(#paint2_linear_2115_2000)" d="M231.9 67.856L128 8L24.1041 67.856L128 127.936L231.9 67.856Z"/><path fill="url(#paint3_linear_2115_2000)" d="M231.9 67.856L128 8L24.1041 67.856L128 127.936L231.9 67.856Z"/><path fill="url(#paint4_linear_2115_2000)" d="M24.104 187.92V67.8556L128 127.936L24.104 187.92Z"/><path style="mix-blend-mode:overlay" fill="url(#paint5_linear_2115_2000)" d="M128 127.938L24.104 187.922L128 248.002V127.938Z"/><path fill="url(#paint6_linear_2115_2000)" d="M128 248L231.9 187.92V67.8556L128 127.936V248Z"/><path fill="url(#paint7_linear_2115_2000)" d="M128 248L231.9 187.92V67.8556L128 127.936V248Z"/><path fill="url(#paint8_linear_2115_2000)" d="M128 248L231.9 187.92V67.8556L128 127.936V248Z"/><g opacity=".8"><path style="mix-blend-mode:overlay" fill="url(#paint9_linear_2115_2000)" d="M100.112 111.88L128 128V8L24 67.888L100.112 111.88Z"/></g><defs><linearGradient id="paint0_linear_2115_2000" x1="68.273" x2="245.585" y1="46.252" y2="223.563" gradientUnits="userSpaceOnUse"><stop stop-color="#FDB60D"/><stop offset=".548" stop-color="#FF318C"/><stop offset=".888" stop-color="#6B57FF"/></linearGradient><linearGradient id="paint1_linear_2115_2000" x1="102.359" x2="113.802" y1="112.267" y2="92.448" gradientUnits="userSpaceOnUse"><stop stop-color="#fff" stop-opacity=".6"/><stop offset=".081" stop-color="#FFC524" stop-opacity=".4"/><stop offset=".705" stop-color="#FFC524" stop-opacity="0"/></linearGradient><linearGradient id="paint2_linear_2115_2000" x1="101.734" x2="118.785" y1="22.361" y2="51.895" gradientUnits="userSpaceOnUse"><stop stop-color="#F9ED32" stop-opacity=".6"/><stop offset=".198" stop-color="#FFC524" stop-opacity=".4"/><stop offset=".705" stop-color="#FFC524" stop-opacity="0"/></linearGradient><linearGradient id="paint3_linear_2115_2000" x1="155.652" x2="148.054" y1="19.962" y2="33.121" gradientUnits="userSpaceOnUse"><stop stop-color="#FDB60D" stop-opacity=".6"/><stop offset=".234" stop-color="#FDB60D" stop-opacity=".4"/><stop offset=".518" stop-color="#FF318C" stop-opacity="0"/></linearGradient><linearGradient id="paint4_linear_2115_2000" x1="24.102" x2="193.11" y1="127.888" y2="127.888" gradientUnits="userSpaceOnUse"><stop offset=".015"/><stop offset=".193"/><stop offset=".572" stop-color="#6B57FF"/><stop offset=".826" stop-color="#FF318C"/></linearGradient><linearGradient id="paint5_linear_2115_2000" x1="100.948" x2="75.095" y1="76.768" y2="223.385" gradientUnits="userSpaceOnUse"><stop offset=".047" stop-color="#fff" stop-opacity=".86"/><stop offset=".767" stop-color="#CBCAA4" stop-opacity="0"/></linearGradient><linearGradient id="paint6_linear_2115_2000" x1="128" x2="155.988" y1="157.928" y2="157.928" gradientUnits="userSpaceOnUse"><stop stop-color="#FFB2FF" stop-opacity=".6"/><stop offset=".081" stop-color="#D828FF" stop-opacity=".4"/><stop offset=".705" stop-color="#FF318C" stop-opacity="0"/></linearGradient><linearGradient id="paint7_linear_2115_2000" x1="232.326" x2="203.741" y1="157.928" y2="157.928" gradientUnits="userSpaceOnUse"><stop stop-color="#64F" stop-opacity=".8"/><stop offset=".097" stop-color="#6B57FF" stop-opacity=".4"/><stop offset=".705" stop-color="#FF318C" stop-opacity="0"/></linearGradient><linearGradient id="paint8_linear_2115_2000" x1="207.462" x2="199.237" y1="205.581" y2="191.335" gradientUnits="userSpaceOnUse"><stop offset=".006" stop-color="#FF318C"/><stop offset=".469" stop-color="#6B57FF" stop-opacity="0"/></linearGradient><linearGradient id="paint9_linear_2115_2000" x1="76" x2="76" y1="11.749" y2="82.246" gradientUnits="userSpaceOnUse"><stop offset=".239" stop-color="#FF5592" stop-opacity=".65"/><stop offset=".829" stop-color="#FF57E4" stop-opacity="0"/></linearGradient></defs></svg>