<svg xmlns="http://www.w3.org/2000/svg" width="256" height="256" fill="none" viewBox="0 0 256 256"><path fill="#5E97F6" stroke="#DCE0DF" stroke-linejoin="round" stroke-width=".188" d="M36.6121 126.474L23.5565 149.092H49.6673L62.7228 126.474H36.6121Z"/><path fill="#5E97F6" stroke="#DCE0DF" stroke-linejoin="round" stroke-width=".188" d="M10.5011 171.703L23.5565 149.091H49.6673L36.6118 171.703H10.5011Z"/><path fill="#5E97F6" stroke="#DCE0DF" stroke-linejoin="round" stroke-width=".188" d="M75.7783 149.091H49.6673L36.6118 171.703H62.7228L75.7783 149.091Z"/><path fill="#5E97F6" stroke="#DCE0DF" stroke-linejoin="round" stroke-width=".188" d="M101.889 149.091H75.7783L62.7228 171.703H88.8337L101.889 149.091Z"/><path fill="#5E97F6" stroke="#DCE0DF" stroke-linejoin="round" stroke-width=".188" d="M88.8338 126.474L75.7783 149.092H101.889L114.945 126.474H88.8338Z"/><path fill="#5E97F6" stroke="#DCE0DF" stroke-linejoin="round" stroke-width=".188" d="M101.889 103.862L88.8337 126.474H114.944L128 103.862H101.889Z"/><path fill="#5E97F6" stroke="#DCE0DF" stroke-linejoin="round" stroke-width=".188" d="M114.945 81.25L101.889 103.862H128L141.056 81.25H114.945Z"/><path fill="#5E97F6" stroke="#DCE0DF" stroke-linejoin="round" stroke-width=".188" d="M128 58.6381L114.945 81.25H141.056L154.111 58.6381H128Z"/><path fill="#2A56C6" stroke="#DCE0DF" stroke-linejoin="round" stroke-width=".188" d="M10.5011 171.704L23.5565 194.316H49.6673L36.6118 171.704H10.5011Z"/><path fill="#2A56C6" stroke="#DCE0DF" stroke-linejoin="round" stroke-width=".188" d="M75.7783 194.316H49.6673L36.6118 171.704H62.7228L75.7783 194.316Z"/><path fill="#2A56C6" stroke="#DCE0DF" stroke-linejoin="round" stroke-width=".188" d="M101.889 194.316H75.7783L62.7228 171.704H88.8337L101.889 194.316Z"/><path fill="#00796B" stroke="#DCE0DF" stroke-linejoin="round" stroke-width=".188" d="M114.944 171.703L101.889 149.091L88.8337 171.703L101.889 194.316L114.944 171.703Z"/><path fill="#00796B" stroke="#DCE0DF" stroke-linejoin="round" stroke-width=".188" d="M141.056 126.474L128 103.862L114.945 126.474H141.056Z"/><path fill="#00796B" stroke="#DCE0DF" stroke-linejoin="round" stroke-width=".188" d="M141.055 81.25L128 103.862L141.055 126.474L154.111 103.862L141.055 81.25Z"/><path fill="#3367D6" stroke="#DCE0DF" stroke-linejoin="round" stroke-width=".188" d="M75.7783 149.092L62.7228 126.474L49.6674 149.092H75.7783Z"/><path fill="#26A69A" stroke="#DCE0DF" stroke-linejoin="round" stroke-width=".188" d="M141.056 126.474H114.945L101.889 149.092H128L141.056 126.474Z"/><path fill="#26A69A" stroke="#DCE0DF" stroke-linejoin="round" stroke-width=".188" d="M167.166 126.474H141.055L128 149.092H154.111L167.166 126.474Z"/><path fill="#9C27B0" stroke="#DCE0DF" stroke-linejoin="round" stroke-width=".188" d="M193.277 81.25L180.222 58.6381L167.166 81.25L180.222 103.862L193.277 81.25Z"/><path fill="#9C27B0" stroke="#DCE0DF" stroke-linejoin="round" stroke-width=".188" d="M206.333 103.862L193.277 81.25L180.222 103.862L193.277 126.474L206.333 103.862Z"/><path fill="#9C27B0" stroke="#DCE0DF" stroke-linejoin="round" stroke-width=".188" d="M219.388 126.474L206.333 103.862L193.277 126.474L206.333 149.091L219.388 126.474Z"/><path fill="#9C27B0" stroke="#DCE0DF" stroke-linejoin="round" stroke-width=".188" d="M232.443 149.091L219.388 126.474L206.333 149.091L219.388 171.704L232.443 149.091Z"/><path fill="#9C27B0" stroke="#DCE0DF" stroke-linejoin="round" stroke-width=".188" d="M245.499 171.703L232.443 149.091L219.388 171.703L232.443 194.316L245.499 171.703Z"/><path fill="#9C27B0" stroke="#DCE0DF" stroke-linejoin="round" stroke-width=".188" d="M232.443 58.6381L219.388 81.25L232.443 103.862L245.499 81.25L232.443 58.6381Z"/><path fill="#9C27B0" stroke="#DCE0DF" stroke-linejoin="round" stroke-width=".188" d="M206.333 103.862L219.388 81.25L232.443 103.862L219.388 126.474L206.333 103.862Z"/><path fill="#9C27B0" stroke="#DCE0DF" stroke-linejoin="round" stroke-width=".188" d="M193.277 126.474L180.222 149.091L193.277 171.704L206.333 149.091L193.277 126.474Z"/><path fill="#9C27B0" stroke="#DCE0DF" stroke-linejoin="round" stroke-width=".188" d="M180.222 194.316L167.166 171.703L180.222 149.091L193.277 171.703L180.222 194.316Z"/><path fill="#6A1B9A" stroke="#DCE0DF" stroke-linejoin="round" stroke-width=".188" d="M154.111 194.316L141.055 171.704H167.166L180.222 194.316H154.111Z"/><path fill="#00695C" stroke="#DCE0DF" stroke-linejoin="round" stroke-width=".188" d="M128 149.091H101.889L114.945 171.703H141.056L128 149.091Z"/><path fill="#00695C" stroke="#DCE0DF" stroke-linejoin="round" stroke-width=".188" d="M154.111 149.091H128L141.055 171.703L154.111 149.091Z"/><path fill="#00695C" stroke="#DCE0DF" stroke-linejoin="round" stroke-width=".188" d="M154.111 103.862L167.166 126.474H193.277L180.222 103.862H154.111Z"/><path fill="#00695C" stroke="#DCE0DF" stroke-linejoin="round" stroke-width=".188" d="M167.166 81.25H141.055L154.111 103.862H180.222L167.166 81.25Z"/><path fill="#00695C" stroke="#DCE0DF" stroke-linejoin="round" stroke-width=".188" d="M232.443 194.316L219.388 171.704H193.277L206.333 194.316H232.443Z"/><path fill="#00695C" stroke="#DCE0DF" stroke-linejoin="round" stroke-width=".188" d="M206.333 149.091L193.277 171.703H219.388L206.333 149.091Z"/><path fill="#EA80FC" stroke="#DCE0DF" stroke-linejoin="round" stroke-width=".188" d="M180.222 58.6381H154.111L141.055 81.25H167.166L180.222 58.6381Z"/><path fill="#EA80FC" stroke="#DCE0DF" stroke-linejoin="round" stroke-width=".188" d="M180.222 149.091H154.111L141.055 171.703H167.166L180.222 149.091Z"/><path fill="#EA80FC" stroke="#DCE0DF" stroke-linejoin="round" stroke-width=".188" d="M193.277 126.474H167.166L154.111 149.092H180.222L193.277 126.474Z"/><path fill="#EA80FC" stroke="#DCE0DF" stroke-linejoin="round" stroke-width=".188" d="M232.443 58.6381H206.333L193.277 81.25H219.388L232.443 58.6381Z"/><path fill="#EA80FC" stroke="#DCE0DF" stroke-linejoin="round" stroke-width=".188" d="M206.333 103.862L193.277 81.25H219.388L206.333 103.862Z"/></svg>